<?xml version="1.0" encoding="UTF-8" standalone="no"?>
<svg
   width="185.7178pt"
   height="179.776pt"
   version="1.1"
   viewBox="0 0 557.15342 539.32801"
   id="svg155"
   sodipodi:docname="edsteva_logo_small.svg"
   inkscape:version="1.1.2 (b8e25be8, 2022-02-05)"
   inkscape:export-filename="/Users/adamremaki/Documents/AP-HP Job/EDS-Temporal_Variability/edsteva/docs/assets/logo/edsteva_logo.png"
   inkscape:export-xdpi="374.76212"
   inkscape:export-ydpi="374.76212"
   xmlns:inkscape="http://www.inkscape.org/namespaces/inkscape"
   xmlns:sodipodi="http://sodipodi.sourceforge.net/DTD/sodipodi-0.dtd"
   xmlns="http://www.w3.org/2000/svg"
   xmlns:svg="http://www.w3.org/2000/svg">
  <sodipodi:namedview
     id="namedview157"
     pagecolor="#ffffff"
     bordercolor="#666666"
     borderopacity="1.0"
     inkscape:pageshadow="2"
     inkscape:pageopacity="0.0"
     inkscape:pagecheckerboard="true"
     inkscape:document-units="pt"
     showgrid="false"
     inkscape:zoom="1.9852363"
     inkscape:cx="94.699056"
     inkscape:cy="43.067922"
     inkscape:window-width="1920"
     inkscape:window-height="1147"
     inkscape:window-x="0"
     inkscape:window-y="25"
     inkscape:window-maximized="0"
     inkscape:current-layer="svg155"
     fit-margin-top="0"
     fit-margin-left="0"
     fit-margin-right="0"
     fit-margin-bottom="0"
     scale-x="3" />
  <defs
     id="defs59">
    <symbol
       id="s"
       overflow="visible">
      <path
         d="M 3.6562,-0.21875 C 3.4687,-0.125 3.26948,-0.05078 3.06245,0 2.86323,0.050781 2.6562,0.078125 2.43745,0.078125 c -0.66797,0 -1.1992,-0.17969 -1.5938,-0.54688 -0.38672,-0.375 -0.57812,-0.87891 -0.57812,-1.5156 0,-0.64453 0.19141,-1.1484 0.57812,-1.5156 0.39453,-0.375 0.92578,-0.5625 1.5938,-0.5625 0.21875,0 0.42578,0.027344 0.625,0.078125 0.20703,0.054687 0.40625,0.125 0.59375,0.21875 v 0.82812 c -0.1875,-0.125 -0.375,-0.21875 -0.5625,-0.28125 -0.17969,-0.0625 -0.37109,-0.09375 -0.57812,-0.09375 -0.36719,0 -0.65625,0.12109 -0.875,0.35938 -0.21094,0.23047 -0.3125,0.55469 -0.3125,0.96875 0,0.40625 0.10156,0.73047 0.3125,0.96875 0.21875,0.23047 0.50781,0.34375 0.875,0.34375 0.20703,0 0.39844,-0.023437 0.57812,-0.078125 0.1875,-0.0625 0.375,-0.16016 0.5625,-0.29688 z"
         id="path2" />
    </symbol>
    <symbol
       id="b"
       overflow="visible">
      <path
         d="M 2.6875,-2.1719 C 2.601562,-2.210963 2.51953,-2.242213 2.4375,-2.26565 2.351562,-2.285181 2.26953,-2.2969 2.1875,-2.2969 c -0.25,0 -0.44531,0.085937 -0.57812,0.25 -0.125,0.15625 -0.1875,0.38281 -0.1875,0.67188 V -2e-5 H 0.45313 v -2.9844 h 0.96875 v 0.48438 c 0.11328,-0.19531 0.25,-0.33594 0.40625,-0.42188 0.16406,-0.09375 0.35938,-0.14062 0.57812,-0.14062 h 0.10938 c 0.039063,0 0.09375,0.00781 0.15625,0.015625 z"
         id="path5" />
    </symbol>
    <symbol
       id="a"
       overflow="visible">
      <path
         d="m 3.4375,-1.5 v 0.26562 H 1.2031 c 0.03125,0.23047 0.11328,0.40234 0.25,0.51562 0.13281,0.10547 0.32812,0.15625 0.57812,0.15625 0.20703,0 0.41406,-0.023438 0.625,-0.078125 0.20703,-0.0625 0.42188,-0.15625 0.64062,-0.28125 v 0.73438 c -0.21875,0.09375 -0.44531,0.16406 -0.67188,0.20312 -0.23047,0.039062 -0.45312,0.0625 -0.67188,0.0625 -0.54297,0 -0.96484,-0.13281 -1.2656,-0.40625 -0.30469,-0.28125 -0.45312,-0.67188 -0.45312,-1.1719 0,-0.47656 0.14453,-0.85938 0.4375,-1.1406 0.30078,-0.28125 0.70703,-0.42188 1.2188,-0.42188 0.46875,0 0.84375,0.14062 1.125,0.42188 0.28125,0.28126 0.42188,0.66406 0.42188,1.1406 z M 2.46875,-1.82812 C 2.46875,-2.0039 2.410156,-2.14453 2.29687,-2.25 2.1914,-2.36328 2.05468,-2.42188 1.89062,-2.42188 c -0.1875,0 -0.33984,0.054687 -0.45312,0.15625 -0.11719,0.10547 -0.1875,0.25 -0.21875,0.4375 z"
         id="path8" />
    </symbol>
    <symbol
       id="i"
       overflow="visible">
      <path
         d="m 1.7969,-1.3438 c -0.19922,0 -0.35156,0.039062 -0.45312,0.10938 -0.09375,0.0625 -0.14062,0.16406 -0.14062,0.29688 0,0.11719 0.035156,0.21094 0.10938,0.28125 0.082031,0.0625 0.19531,0.09375 0.34375,0.09375 0.17578,0 0.32812,-0.0625 0.45312,-0.1875 0.125,-0.125 0.1875,-0.28516 0.1875,-0.48438 V -1.3438 Z M 3.2657,-1.70318 V -8e-5 H 2.29695 v -0.4375 c -0.125,0.17969 -0.27344,0.30859 -0.4375,0.39062 -0.15625,0.082031 -0.35156,0.125 -0.57812,0.125 -0.3125,0 -0.57031,-0.085938 -0.76562,-0.26562 -0.1875,-0.1875 -0.28125,-0.42188 -0.28125,-0.70312 0,-0.35156 0.11719,-0.61328 0.35938,-0.78125 0.23828,-0.16406 0.61719,-0.25 1.1406,-0.25 h 0.5625 v -0.0625 c 0,-0.15625 -0.0625,-0.26562 -0.1875,-0.32812 -0.11719,-0.070312 -0.29688,-0.10938 -0.54688,-0.10938 -0.21094,0 -0.40234,0.023437 -0.57812,0.0625 -0.17969,0.042969 -0.33984,0.10156 -0.48438,0.17188 v -0.71875 c 0.19531,-0.050781 0.39844,-0.085938 0.60938,-0.10938 0.20703,-0.03125 0.41406,-0.046875 0.625,-0.046875 0.53906,0 0.92969,0.10938 1.1719,0.32812 0.23828,0.21094 0.35938,0.55469 0.35938,1.0312 z"
         id="path11" />
    </symbol>
    <symbol
       id="c"
       overflow="visible">
      <path
         d="m 1.5,-3.8438 v 0.85938 h 0.98438 v 0.67188 H 1.5 v 1.2812 c 0,0.13672 0.023438,0.23047 0.078125,0.28125 0.0625,0.042969 0.17578,0.0625 0.34375,0.0625 h 0.48438 V -9e-5 h -0.8125 c -0.38672,0 -0.65625,-0.078125 -0.8125,-0.23438 -0.15625,-0.156255 -0.23438,-0.42188 -0.23438,-0.79688 v -1.2812 h -0.46875 v -0.67188 h 0.46875 v -0.85938 z"
         id="path14" />
    </symbol>
    <symbol
       id="h"
       overflow="visible">
      <path
         d="M 2.5,-2.5469 V -4.1563 H 3.45312 V -1e-4 H 2.5 v -0.4375 c -0.13672,0.17969 -0.28125,0.30859 -0.4375,0.39062 -0.15625,0.082031 -0.33984,0.125 -0.54688,0.125 -0.375,0 -0.68359,-0.14453 -0.92188,-0.4375 -0.23047,-0.28906 -0.34375,-0.67188 -0.34375,-1.1406 0,-0.45703 0.11328,-0.83203 0.34375,-1.125 0.23828,-0.28906 0.54688,-0.4375 0.92188,-0.4375 0.19531,0 0.375,0.042969 0.53125,0.125 0.16406,0.085938 0.31641,0.21484 0.45312,0.39062 z m -0.64062,1.9375 c 0.20703,0 0.36328,-0.070313 0.46875,-0.21875 0.11328,-0.15625 0.17188,-0.37891 0.17188,-0.67188 0,-0.28125 -0.058594,-0.49219 -0.17188,-0.64062 -0.10547,-0.15625 -0.26172,-0.23438 -0.46875,-0.23438 -0.19922,0 -0.35547,0.078125 -0.46875,0.23438 -0.10547,0.14844 -0.15625,0.35938 -0.15625,0.64062 0,0.29297 0.050781,0.51562 0.15625,0.67188 0.11328,0.14844 0.26953,0.21875 0.46875,0.21875 z"
         id="path17" />
    </symbol>
    <symbol
       id="g"
       overflow="visible">
      <path
         d="m 2.0469,-0.60938 c 0.20703,0 0.36328,-0.070313 0.46875,-0.21875 0.11328,-0.15625 0.17188,-0.37891 0.17188,-0.67188 0,-0.28125 -0.058594,-0.49219 -0.17188,-0.64062 -0.10547,-0.15625 -0.26172,-0.23438 -0.46875,-0.23438 -0.19922,0 -0.35547,0.078125 -0.46875,0.23438 -0.10547,0.14844 -0.15625,0.35938 -0.15625,0.64062 0,0.29297 0.050781,0.51562 0.15625,0.67188 0.11328,0.14844 0.26953,0.21875 0.46875,0.21875 z m -0.625,-1.9375 c 0.125,-0.17578 0.26562,-0.30469 0.42188,-0.39062 0.16406,-0.082031 0.35156,-0.125 0.5625,-0.125 0.36328,0 0.66406,0.14844 0.90625,0.4375 0.23828,0.29297 0.35938,0.66797 0.35938,1.125 0,0.46875 -0.12109,0.85156 -0.35938,1.1406 -0.24219,0.29297 -0.54297,0.4375 -0.90625,0.4375 -0.21094,0 -0.39844,-0.042969 -0.5625,-0.125 C 1.68753,-0.128931 1.5469,-0.25784 1.4219,-0.43752 V -2e-5 H 0.45315 v -4.1562 H 1.4219 Z"
         id="path20" />
    </symbol>
    <symbol
       id="f"
       overflow="visible">
      <path
         d="m 0.0625,-2.9844 h 0.95312 l 0.8125,2.0156 0.6875,-2.0156 H 3.46874 L 2.20314,0.2812 C 2.07814,0.61323 1.9297,0.84761 1.76564,0.98432 1.59767,1.11713 1.37502,1.18744 1.09376,1.18744 H 0.54688 V 0.54682 h 0.29688 c 0.16406,0 0.28516,-0.027344 0.35938,-0.078125 0.070313,-0.054688 0.12891,-0.14062 0.17188,-0.26562 l 0.03125,-0.09375 z"
         id="path23" />
    </symbol>
    <symbol
       id="e"
       overflow="visible">
      <path
         d="M 0.45312,-2.9844 H 1.42187 V 0 H 0.45312 Z m 0,-1.1719 h 0.96875 v 0.78125 H 0.45312 Z"
         id="path26" />
    </symbol>
    <symbol
       id="k"
       overflow="visible">
      <path
         d="M 3.4688,-1.8281 V 0 H 2.50005 v -1.3906 c 0,-0.25781 -0.00781,-0.4375 -0.015625,-0.53125 -0.011719,-0.10156 -0.03125,-0.17578 -0.0625,-0.21875 -0.03125,-0.0625 -0.085937,-0.10938 -0.15625,-0.14062 -0.0625,-0.039062 -0.13281,-0.0625 -0.20312,-0.0625 -0.21094,0 -0.37109,0.078125 -0.48438,0.23438 -0.10547,0.15625 -0.15625,0.37109 -0.15625,0.64062 V 8e-5 h -0.96875 v -2.9844 h 0.96875 v 0.4375 c 0.13281,-0.17578 0.28516,-0.30469 0.45312,-0.39062 0.16406,-0.082031 0.34375,-0.125 0.53125,-0.125 0.34375,0 0.60156,0.10938 0.78125,0.32812 0.1875,0.21094 0.28125,0.51172 0.28125,0.90625 z"
         id="path29" />
    </symbol>
    <symbol
       id="j"
       overflow="visible">
      <path
         d="m 2.4219,-4.1562 v 0.625 H 1.90628 c -0.13672,0 -0.23438,0.027344 -0.29688,0.078125 -0.054687,0.054687 -0.078125,0.13672 -0.078125,0.25 v 0.21875 h 0.82812 v 0.67188 h -0.82812 v 2.3125 h -0.95312 v -2.3125 h -0.46875 v -0.67188 h 0.46875 v -0.21875 c 0,-0.32031 0.085937,-0.5625 0.26562,-0.71875 0.1875,-0.15625 0.47266,-0.23438 0.85938,-0.23438 z"
         id="path32" />
    </symbol>
    <symbol
       id="d"
       overflow="visible">
      <path
         d="m 1.875,-2.375 c -0.21094,0 -0.37109,0.078125 -0.48438,0.23438 -0.10547,0.14844 -0.15625,0.35938 -0.15625,0.64062 0,0.29297 0.050781,0.51562 0.15625,0.67188 0.11328,0.14844 0.27344,0.21875 0.48438,0.21875 0.20703,0 0.36719,-0.070313 0.48438,-0.21875 C 2.47266,-0.98437 2.53126,-1.20703 2.53126,-1.5 2.53126,-1.78125 2.472666,-1.99219 2.35938,-2.14062 2.24219,-2.29687 2.08204,-2.375 1.875,-2.375 Z m 0,-0.6875 c 0.51953,0 0.92188,0.14062 1.2031,0.42188 0.28906,0.27344 0.4375,0.65234 0.4375,1.1406 0,0.5 -0.14844,0.89062 -0.4375,1.1719 C 2.79685,-0.05468 2.39451,0.07813 1.875,0.07813 1.36328,0.07813 0.96094,-0.05468 0.6719,-0.32812 0.37893,-0.60937 0.2344,-1 0.2344,-1.50002 c 0,-0.48828 0.14453,-0.86719 0.4375,-1.1406 C 0.96096,-2.92187 1.36331,-3.0625 1.875,-3.0625 Z"
         id="path35" />
    </symbol>
    <symbol
       id="r"
       overflow="visible">
      <path
         d="m 3.2344,-2.5 c 0.11328,-0.17578 0.25391,-0.3125 0.42188,-0.40625 0.16406,-0.10156 0.35156,-0.15625 0.5625,-0.15625 0.33203,0 0.58594,0.10938 0.76562,0.32812 0.1875,0.21094 0.28125,0.51172 0.28125,0.90625 V -3e-5 H 4.2969 v -1.5625 c 0.00781,-0.019531 0.015625,-0.039062 0.015625,-0.0625 v -0.10938 c 0,-0.21875 -0.03125,-0.375 -0.09375,-0.46875 -0.0625,-0.09375 -0.16406,-0.14062 -0.29688,-0.14062 -0.1875,0 -0.33594,0.078125 -0.4375,0.23438 -0.09375,0.14844 -0.14062,0.35938 -0.14062,0.64062 V 2e-5 h -0.96875 v -1.5625 c 0,-0.33203 -0.03125,-0.54688 -0.09375,-0.64062 -0.054688,-0.09375 -0.15234,-0.14062 -0.29688,-0.14062 -0.17969,0 -0.32031,0.078125 -0.42188,0.23438 -0.09375,0.14844 -0.14062,0.35938 -0.14062,0.64062 V 8e-5 h -0.96875 v -2.9844 h 0.96875 v 0.4375 c 0.11328,-0.17578 0.24219,-0.30469 0.39062,-0.39062 0.15625,-0.082031 0.32812,-0.125 0.51562,-0.125 0.20703,0 0.39062,0.054688 0.54688,0.15625 0.15625,0.09375 0.27344,0.23047 0.35938,0.40625 z"
         id="path38" />
    </symbol>
    <symbol
       id="q"
       overflow="visible">
      <path
         d="M 3.4688,-1.8281 V 0 H 2.50005 v -1.3906 c 0,-0.25781 -0.00781,-0.4375 -0.015625,-0.53125 -0.011719,-0.10156 -0.03125,-0.17578 -0.0625,-0.21875 -0.03125,-0.0625 -0.085937,-0.10938 -0.15625,-0.14062 -0.0625,-0.039062 -0.13281,-0.0625 -0.20312,-0.0625 -0.21094,0 -0.37109,0.078125 -0.48438,0.23438 -0.10547,0.15625 -0.15625,0.37109 -0.15625,0.64062 V 8e-5 h -0.96875 v -4.1562 h 0.96875 v 1.6094 c 0.13281,-0.17578 0.28516,-0.30469 0.45312,-0.39062 0.16406,-0.082031 0.34375,-0.125 0.53125,-0.125 0.34375,0 0.60156,0.10938 0.78125,0.32812 0.1875,0.21094 0.28125,0.51172 0.28125,0.90625 z"
         id="path41" />
    </symbol>
    <symbol
       id="p"
       overflow="visible">
      <path
         d="M 0.5,-3.9844 H 1.6562 L 3.0937,-1.25 V -3.9844 H 4.07808 V 0 H 2.92188 L 1.48438,-2.7344 V 0 H 0.5 Z"
         id="path44" />
    </symbol>
    <symbol
       id="o"
       overflow="visible">
      <path
         d="m 0.42188,-1.1719 v -1.8125 h 0.96875 v 0.29688 0.60938 0.48438 c 0,0.24219 0.00391,0.41797 0.015625,0.53125 0.00781,0.10547 0.03125,0.17969 0.0625,0.21875 0.039062,0.0625 0.09375,0.11719 0.15625,0.15625 0.0625,0.03125 0.13281,0.046875 0.21875,0.046875 0.19531,0 0.35156,-0.078125 0.46875,-0.23438 0.11328,-0.15625 0.17188,-0.36719 0.17188,-0.64062 v -1.4688 h 0.95312 v 2.9844 h -0.95312 v -0.4375 c -0.14844,0.17969 -0.30469,0.30859 -0.46875,0.39062 -0.15625,0.082031 -0.33594,0.125 -0.53125,0.125 -0.34375,0 -0.60938,-0.10156 -0.79688,-0.3125 -0.17969,-0.21875 -0.26562,-0.53125 -0.26562,-0.9375 z"
         id="path47" />
    </symbol>
    <symbol
       id="n"
       overflow="visible">
      <path
         d="m 0.5,-3.9844 h 1.7031 c 0.50781,0 0.89844,0.11719 1.1719,0.34375 0.26953,0.21875 0.40625,0.53906 0.40625,0.95312 0,0.41797 -0.13672,0.74219 -0.40625,0.96875 -0.27344,0.21875 -0.66406,0.32812 -1.1719,0.32812 H 1.53122 V -6e-5 h -1.0312 z m 1.0312,0.75 v 1.1094 h 0.5625 c 0.19531,0 0.34766,-0.046875 0.45312,-0.14062 C 2.6601,-2.36718 2.7187,-2.50781 2.7187,-2.6875 2.7187,-2.86328 2.660106,-3 2.54682,-3.09375 2.44135,-3.1875 2.28901,-3.23437 2.0937,-3.23437 Z"
         id="path50" />
    </symbol>
    <symbol
       id="m"
       overflow="visible">
      <path
         d="m 0.45312,-2.9844 h 0.96875 v 2.9375 c 0,0.39453 -0.10156,0.69531 -0.29688,0.90625 C 0.93749,1.0781 0.66015,1.18747 0.29687,1.18747 H -0.18751 V 0.54685 h 0.17188 c 0.17578,0 0.29688,-0.042969 0.35938,-0.125 C 0.414062,0.347631 0.45313,0.19138 0.45313,-0.0469 Z m 0,-1.1719 h 0.96875 v 0.78125 H 0.45312 Z"
         id="path53" />
    </symbol>
    <symbol
       id="l"
       overflow="visible">
      <path
         d="m 2.875,-2.8906 v 0.76562 C 2.75,-2.207011 2.61719,-2.26951 2.48438,-2.31248 2.34766,-2.351542 2.21094,-2.37498 2.07813,-2.37498 c -0.27344,0 -0.48047,0.078125 -0.625,0.23438 -0.14844,0.15625 -0.21875,0.37109 -0.21875,0.64062 0,0.28125 0.070313,0.5 0.21875,0.65625 0.14453,0.15625 0.35156,0.23438 0.625,0.23438 0.14453,0 0.28516,-0.019531 0.42188,-0.0625 0.13281,-0.039063 0.25781,-0.10938 0.375,-0.20312 v 0.78125 c -0.14844,0.0625 -0.29688,0.10156 -0.45312,0.125 -0.15625,0.03125 -0.3125,0.046875 -0.46875,0.046875 -0.54297,0 -0.96484,-0.13281 -1.2656,-0.40625 -0.30469,-0.28125 -0.45312,-0.67188 -0.45312,-1.1719 0,-0.48828 0.14844,-0.86719 0.45312,-1.1406 0.30078,-0.28125 0.72266,-0.42188 1.2656,-0.42188 0.15625,0 0.3125,0.015625 0.46875,0.046875 0.15625,0.023437 0.30469,0.0625 0.45312,0.125 z"
         id="path56" />
    </symbol>
  </defs>
  <ellipse
     style="fill:#006bb6;fill-opacity:1;stroke-width:1.54589"
     id="path23056"
     cx="280.7851"
     cy="269.6499"
     rx="276.36835"
     ry="269.60413"
     inkscape:export-filename="/Users/adamremaki/Documents/AP-HP Job/EDS-Temporal_Variability/edsteva/docs/assets/logo/edsteva_logo.png"
     inkscape:export-xdpi="200.21106"
     inkscape:export-ydpi="200.21106" />
  <g
     id="g153"
     transform="translate(-89.802,-10.28)"
     style="fill:#e34b4b;fill-opacity:1">
    <path
       d="m 304.29241,187.72477 c -3.63462,-5.7449 -19.0177,5.1651 -23.93076,10.19721 -5.72097,5.85961 -5.8079,12.82428 -2.17322,18.56958 l 82.9059,115.85503 c 0.28694,0.50559 0.5739,0.81338 0.86084,1.12119 0.0957,0.0366 0.1913,0.27113 0.1913,0.27113 0.19129,0.27115 0.38259,0.54228 0.66954,0.65224 0.0956,0.0366 0.19129,0.27115 0.28694,0.30781 0.1913,0.0733 0.3826,0.34446 0.5739,0.41777 0.0956,0.0366 0.1913,0.0733 0.28693,0.30781 0.28695,0.10997 0.47826,0.1833 0.7652,0.49109 l 0.0957,0.0366 c 0.28693,0.10998 0.57389,0.21995 0.86084,0.13211 l 0.19129,0.0733 c 0.28695,0.10997 0.5739,0.0221 0.7652,-0.10235 l 0.0957,0.0366 0.86084,-0.2635 c 0.0957,0.0366 0.0957,0.0366 0.1913,-0.12452 0.19129,-0.1245 0.47824,-0.21234 0.66953,-0.33682 0.0957,0.0366 0.0957,-0.16117 0.1913,-0.12452 0.28694,-0.28566 0.47825,-0.41015 0.76519,-0.69582 0.0957,0.0366 0.0957,-0.16117 0.1913,-0.12451 0.0957,-0.16117 0.28694,-0.28566 0.38259,-0.44681 l 94.30076,-112.8742 40.18149,9.32739 c 2.39125,1.11429 4.68682,-0.18198 6.12154,-3.58827 l 41.98115,-79.77599 7.11732,11.98603 c 0,0 7.12915,16.51992 18.29813,13.68373 17.38848,-4.41554 17.20468,-17.14826 8.23745,-33.50261 l -13.11354,-23.91634 c -5.35394,-9.76446 -23.10802,-17.767198 -33.21475,-15.687446 l -41.57173,8.554586 c -8.36547,1.5194 -17.79521,8.69004 -12.37689,23.41775 3.00898,8.17881 16.08655,7.93633 20.67177,6.83154 l 14.50038,-3.9083 -29.47697,49.62307 -39.39763,-7.95515 c -2.00865,-0.96766 -3.82595,-0.0816 -5.26067,1.94012 l -78.83114,97.70311 z"
       id="path61"
       style="fill:#ffffff;fill-opacity:1;stroke-width:1.25763"
       sodipodi:nodetypes="csccccsssccscscccccccccccccssssscsscccccc" />
    <path
       d="m 196.88,280 c 0,-4.8125 -3.9375,-8.75 -8.75,-8.75 h -34.016 c -4.8125,0 -8.75,3.9375 -8.75,8.75 0,4.8125 3.9375,8.75 8.75,8.75 h 34.016 c 4.8125,0 8.75,-3.9375 8.75,-8.75 z"
       id="path63"
       style="fill:#ffffff;fill-opacity:1" />
    <path
       d="m 215.47,186.7 -29.531,-16.953 c -4.1562,-2.4062 -9.5156,-0.98438 -11.922,3.1719 -2.4064,4.15628 -0.98438,9.5156 3.1719,11.922 l 29.531,16.953 c 1.4219,0.76562 2.8438,1.2031 4.375,1.2031 3.0625,0 6.0156,-1.5312 7.5469,-4.375 2.4062,-4.1562 0.98438,-9.5156 -3.1719,-11.922 z"
       id="path65"
       style="fill:#ffffff;fill-opacity:1" />
    <path
       d="m 266.22,135.95 c 1.6406,2.8438 4.5938,4.375 7.5469,4.375 1.5312,0 2.9531,-0.32812 4.375,-1.2031 4.1562,-2.4062 5.5781,-7.7656 3.1719,-11.922 l -16.953,-29.422 c -2.4062,-4.1562 -7.7656,-5.5781 -11.922,-3.1719 -4.1564,2.4062 -5.5781,7.7656 -3.1719,11.922 z"
       id="path67"
       style="fill:#ffffff;fill-opacity:1" />
    <path
       d="m 252.44,465.39 c 1.4219,0.76562 2.8438,1.2031 4.375,1.2031 3.0625,0 6.0156,-1.5312 7.5469,-4.375 l 16.953,-29.422 c 2.4062,-4.1562 0.98438,-9.5156 -3.1719,-11.922 -4.15628,-2.4064 -9.5156,-0.98438 -11.922,3.1719 l -16.953,29.422 c -2.4062,4.1562 -0.98438,9.5156 3.1719,11.922 z"
       id="path69"
       style="fill:#ffffff;fill-opacity:1" />
    <path
       d="m 181.67,391.45 c 1.5312,0 2.9531,-0.32812 4.375,-1.2031 l 29.531,-17.062 c 4.1562,-2.4062 5.5781,-7.7656 3.1719,-11.922 -2.4062,-4.1564 -7.7656,-5.5781 -11.922,-3.1719 l -29.641,17.062 c -4.1562,2.4062 -5.5781,7.7656 -3.1719,11.922 1.6406,2.8438 4.5938,4.375 7.6562,4.375 z"
       id="path71"
       style="fill:#ffffff;fill-opacity:1" />
    <path
       d="M 359.52,532.22 C 220.4,532.22 107.3,419.02 107.3,280 107.3,140.98 220.39,27.78 359.52,27.78 c 4.8125,0 8.75,-3.9375 8.75,-8.75 0,-4.8125 -3.9375,-8.75 -8.75,-8.75 -72.078,0 -139.78,28 -190.64,78.969 -50.969,50.969 -79.078,118.67 -79.078,190.75 0,72.08 28,139.78 78.969,190.64 50.969,50.969 118.67,78.969 190.64,78.969 4.8125,0 8.75,-3.9375 8.75,-8.75 0,-4.8125 -3.8281,-8.6406 -8.6406,-8.6406 z"
       id="path73"
       style="fill:#006bb6;fill-opacity:1" />
    <path
       d="m 350.77,450.95 v 34.016 c 0,4.8125 3.9375,8.75 8.75,8.75 4.8125,0 8.75,-3.9375 8.75,-8.75 V 450.95 c 0,-4.8125 -3.9375,-8.75 -8.75,-8.75 -4.8125,0 -8.75,3.8281 -8.75,8.75 z"
       id="path75"
       style="fill:#ffffff;fill-opacity:1" />
    <path
       d="M 382.01009,118.83265 V 76.248103 c 0,-6.024757 -7.02902,-10.954103 -15.62005,-10.954103 -8.59102,0 -15.62004,4.929346 -15.62004,10.954103 v 42.584547 c 0,6.02475 7.02902,10.9541 15.62004,10.9541 8.59103,0 15.62005,-4.92935 15.62005,-10.9541 z"
       id="path79"
       style="fill:#ffffff;fill-opacity:1;stroke-width:1.49493" />
    <path
       d="m 193.32317,260.01717 -42.58071,0.57174 c -6.02422,0.0809 -10.85875,7.17546 -10.74341,15.76571 0.11534,8.59025 5.13862,15.55245 11.16284,15.47157 l 42.58071,-0.57174 c 6.02421,-0.0809 10.85874,-7.17546 10.7434,-15.7657 -0.11534,-8.59026 -5.13862,-15.55246 -11.16283,-15.47158 z"
       id="path79-9"
       style="fill:#ffffff;fill-opacity:1;stroke-width:1.49493" />
    <path
       d="m 343.51218,450.13856 0.25684,42.58377 c 0.0363,6.02465 7.09496,10.91152 15.68583,10.8597 8.59087,-0.0518 15.59002,-5.02346 15.5537,-11.04812 l -0.25684,-42.58377 c -0.0364,-6.02464 -7.09496,-10.91151 -15.68582,-10.85969 -8.59088,0.0518 -15.59003,5.02346 -15.55371,11.04811 z"
       id="path79-9-2"
       style="fill:#ffffff;fill-opacity:1;stroke-width:1.49493" />
    <path
       d="m 264.75739,415.91483 -24.45603,34.86181 c -3.46001,4.93214 -0.53658,13.0043 6.49646,17.93806 7.03303,4.93379 15.61822,4.93509 19.07822,0.003 l 24.45604,-34.86182 c 3.45992,-4.93219 0.53657,-13.00429 -6.49647,-17.93805 -7.03303,-4.93379 -15.61822,-4.93509 -19.07822,-0.003 z"
       id="path79-9-2-5"
       style="fill:#ffffff;fill-opacity:1;stroke-width:1.49493" />
    <path
       d="m 205.24687,349.23261 -35.17778,23.99931 c -4.97689,3.39534 -5.08752,11.97985 -0.24589,19.07663 4.84162,7.09679 12.87494,10.12521 17.85183,6.72986 l 35.17778,-23.99932 c 4.97683,-3.39541 5.08751,-11.97984 0.24588,-19.07661 -4.84162,-7.0968 -12.87494,-10.12522 -17.85182,-6.72987 z"
       id="path79-9-2-6"
       style="fill:#ffffff;fill-opacity:1;stroke-width:1.49493" />
    <path
       d="m 172.02751,190.82541 38.96742,17.17507 c 5.51301,2.42992 12.8586,-2.014 16.3235,-9.87531 3.46492,-7.8613 1.78919,-16.28136 -3.72384,-18.71127 l -38.96742,-17.17506 c -5.51304,-2.42983 -12.85859,2.014 -16.32349,9.8753 -3.46492,7.86131 -1.78919,16.28137 3.72383,18.71127 z"
       id="path79-9-2-7"
       style="fill:#ffffff;fill-opacity:1;stroke-width:1.49493" />
    <path
       d="m 241.75934,106.81592 24.01769,35.16524 c 3.39793,4.97511 11.98251,5.08126 19.07676,0.23591 7.09426,-4.84533 10.11848,-12.88023 6.72052,-17.85534 L 267.55662,89.196495 c -3.39802,-4.975051 -11.98251,-5.081252 -19.07675,-0.235913 -7.09427,4.845334 -10.11849,12.880228 -6.72053,17.855338 z"
       id="path79-9-2-2"
       style="fill:#ffffff;fill-opacity:1;stroke-width:1.49493" />
  </g>
</svg>
